<svg width="32" height="32" viewBox="0 0 32 32" fill="none" xmlns="http://www.w3.org/2000/svg">
<g id="Icon/Bill">
<g id="Layer 2">
<path id="Vector" d="M21.5418 8.36061H10.0932C9.84018 8.36061 9.59751 8.2601 9.41859 8.08118C9.23968 7.90226 9.13916 7.65959 9.13916 7.40656C9.13916 7.15353 9.23968 6.91087 9.41859 6.73195C9.59751 6.55303 9.84018 6.45251 10.0932 6.45251H21.5418C21.7948 6.45251 22.0375 6.55303 22.2164 6.73195C22.3953 6.91087 22.4958 7.15353 22.4958 7.40656C22.4958 7.65959 22.3953 7.90226 22.2164 8.08118C22.0375 8.2601 21.7948 8.36061 21.5418 8.36061Z" fill="#C5C8D4"/>
<path id="Vector_2" d="M21.5418 13.4489H10.0932C9.84018 13.4489 9.59751 13.3484 9.41859 13.1694C9.23968 12.9905 9.13916 12.7478 9.13916 12.4948C9.13916 12.2418 9.23968 11.9991 9.41859 11.8202C9.59751 11.6413 9.84018 11.5408 10.0932 11.5408H21.5418C21.7948 11.5408 22.0375 11.6413 22.2164 11.8202C22.3953 11.9991 22.4958 12.2418 22.4958 12.4948C22.4958 12.7478 22.3953 12.9905 22.2164 13.1694C22.0375 13.3484 21.7948 13.4489 21.5418 13.4489Z" fill="#C5C8D4"/>
<path id="Vector_3" d="M15.1815 23.6254H10.0932C9.84018 23.6254 9.59751 23.5249 9.41859 23.3459C9.23968 23.167 9.13916 22.9244 9.13916 22.6713C9.13916 22.4183 9.23968 22.1756 9.41859 21.9967C9.59751 21.8178 9.84018 21.7173 10.0932 21.7173H15.1815C15.4345 21.7173 15.6772 21.8178 15.8561 21.9967C16.035 22.1756 16.1355 22.4183 16.1355 22.6713C16.1355 22.9244 16.035 23.167 15.8561 23.3459C15.6772 23.5249 15.4345 23.6254 15.1815 23.6254Z" fill="#C5C8D4"/>
<path id="Vector_4" d="M21.5418 18.5372H10.0932C9.84018 18.5372 9.59751 18.4367 9.41859 18.2578C9.23968 18.0789 9.13916 17.8362 9.13916 17.5832C9.13916 17.3302 9.23968 17.0875 9.41859 16.9086C9.59751 16.7297 9.84018 16.6292 10.0932 16.6292H21.5418C21.7948 16.6292 22.0375 16.7297 22.2164 16.9086C22.3953 17.0875 22.4958 17.3302 22.4958 17.5832C22.4958 17.8362 22.3953 18.0789 22.2164 18.2578C22.0375 18.4367 21.7948 18.5372 21.5418 18.5372Z" fill="#C5C8D4"/>
<path id="Vector_5" d="M15.8175 29.9985C14.7327 30.0224 13.6598 29.7684 12.7009 29.2607C12.003 28.8688 11.2112 28.6752 10.4112 28.7009C9.611 28.6733 8.81868 28.8669 8.12149 29.2607C7.71271 29.4593 7.28699 29.6211 6.84943 29.744C6.52094 29.8445 6.17333 29.8658 5.83504 29.8061C5.49675 29.7464 5.17741 29.6074 4.90317 29.4006C4.62263 29.1933 4.39473 28.923 4.23785 28.6114C4.08096 28.2999 3.99949 27.9558 4 27.607V4.22644C4.00164 3.93026 4.06203 3.63736 4.17767 3.36469C4.29332 3.09202 4.46191 2.845 4.67369 2.63795C4.88548 2.4309 5.13624 2.26793 5.41145 2.15848C5.68667 2.04903 5.98086 1.99527 6.277 2.00033H25.358C25.9473 2.00367 26.5116 2.23927 26.9284 2.65603C27.3451 3.07278 27.5807 3.63707 27.5841 4.22644V27.607C27.5866 27.9551 27.5076 28.2989 27.3531 28.6109C27.1987 28.9229 26.9733 29.1943 26.6949 29.4034C26.4166 29.6125 26.0931 29.7533 25.7505 29.8147C25.4078 29.8761 25.0555 29.8562 24.7219 29.7568C24.2858 29.6242 23.8606 29.4583 23.4499 29.2607C22.7519 28.8688 21.9601 28.6752 21.1601 28.7009C20.3597 28.6713 19.5669 28.8651 18.8704 29.2607C17.9305 29.7579 16.8808 30.0116 15.8175 29.9985ZM10.4112 26.7928C11.4917 26.7711 12.5599 27.025 13.515 27.5306C14.2169 27.9242 15.0133 28.1178 15.8175 28.0904C16.6175 28.1161 17.4093 27.9225 18.1072 27.5306C19.0661 27.0229 20.139 26.7689 21.2237 26.7928C22.3085 26.7689 23.3814 27.0229 24.3403 27.5306C24.6393 27.6857 24.9497 27.8176 25.2689 27.925C25.3131 27.9439 25.3607 27.9536 25.4088 27.9536C25.4569 27.9536 25.5045 27.9439 25.5488 27.925C25.5893 27.8934 25.6218 27.8528 25.6439 27.8064C25.666 27.7601 25.677 27.7092 25.676 27.6579V4.22644C25.676 4.14209 25.6425 4.06121 25.5828 4.00157C25.5232 3.94193 25.4423 3.90842 25.358 3.90842H6.277C6.19265 3.90842 6.11176 3.94193 6.05213 4.00157C5.99249 4.06121 5.95898 4.14209 5.95898 4.22644V27.607C5.95679 27.6567 5.96733 27.7062 5.98959 27.7507C6.01185 27.7952 6.04509 27.8333 6.08619 27.8614C6.12587 27.8908 6.17125 27.9117 6.21942 27.9226C6.2676 27.9336 6.31753 27.9344 6.36604 27.925C6.68524 27.8176 6.99569 27.6857 7.29465 27.5306C8.25356 27.0229 9.32643 26.7689 10.4112 26.7928Z" fill="#C5C8D4"/>
</g>
</g>
</svg>
