<svg width="32" height="32" viewBox="0 0 32 32" fill="none" xmlns="http://www.w3.org/2000/svg">
<g id="Icon/Chart 2" clip-path="url(#clip0_799_602)">
<g id="Group">
<g id="Group_2">
<path id="Vector" d="M27.666 16.8094H15.1938V4.33997C15.1938 3.83609 14.7906 3.43298 14.2866 3.43298C6.41083 3.43298 0 9.84239 0 17.7164C0 25.5904 6.41083 31.9999 14.2866 31.9999C22.1624 31.9999 28.5732 25.5904 28.5732 17.7164C28.5732 17.2193 28.1633 16.8094 27.666 16.8094ZM14.2866 30.1859C7.4121 30.1859 1.81439 24.5894 1.81439 17.7164C1.81439 11.1458 6.92155 5.74413 13.3794 5.28056V17.7164C13.3794 18.2203 13.7826 18.6234 14.2866 18.6234H26.7252C26.2616 25.0798 20.8587 30.1859 14.2866 30.1859Z" fill="#C5C8D4"/>
<path id="Vector_2" d="M32 14.2364C31.9865 10.7697 30.7164 7.43061 28.4249 4.83057C25.7101 1.76024 21.8125 0 17.7133 0C17.2093 0 16.8062 0.403107 16.8062 0.906991V14.2834C16.8062 14.7873 17.2093 15.1904 17.7133 15.1904H31.0928C31.5968 15.1904 32 14.7873 32 14.2834C32 14.27 32 14.2566 32 14.2364ZM18.6205 13.3832V1.85429C21.8596 2.08944 24.897 3.58765 27.0608 6.03989C28.8752 8.08902 29.9504 10.6689 30.152 13.3832H18.6205Z" fill="#C5C8D4"/>
</g>
</g>
</g>
<defs>
<clipPath id="clip0_799_602">
<rect width="32" height="32" fill="white"/>
</clipPath>
</defs>
</svg>
