<svg width="14" height="11" viewBox="0 0 14 11" fill="none" xmlns="http://www.w3.org/2000/svg">
<g id="Group 290">
<path id="Vector" d="M6.93567 7.18482C7.4126 7.18482 7.86999 7.01642 8.20722 6.71667C8.54446 6.41693 8.73392 6.01039 8.73392 5.58648C8.73392 5.53967 8.73151 5.49329 8.72701 5.44748L6.77929 7.17868C6.83083 7.18267 6.88285 7.18482 6.93567 7.18482ZM12.8879 0.642492L12.202 0.0334121C12.1779 0.0120179 12.1452 0 12.1112 0C12.0771 0 12.0445 0.0120179 12.0204 0.0334121L10.2652 1.59393C9.29688 1.1541 8.20846 0.934188 6.99989 0.934188C3.91398 0.934188 1.61159 2.3627 0.0927143 5.21972C0.031663 5.33463 0 5.46012 0 5.58719C0 5.71427 0.031663 5.83976 0.0927143 5.95467C0.699621 7.09091 1.43043 8.00163 2.28513 8.68682L0.586589 10.196C0.562519 10.2174 0.548998 10.2464 0.548998 10.2767C0.548998 10.3069 0.562519 10.336 0.586589 10.3574L1.27201 10.9666C1.29609 10.988 1.32875 11 1.3628 11C1.39686 11 1.42951 10.988 1.4536 10.9666L12.8879 0.804038C12.8998 0.793435 12.9093 0.780843 12.9157 0.766984C12.9222 0.753124 12.9255 0.738268 12.9255 0.723265C12.9255 0.708261 12.9222 0.693405 12.9157 0.679546C12.9093 0.665686 12.8998 0.653095 12.8879 0.642492ZM4.10986 5.58648C4.10982 5.15266 4.23619 4.72622 4.47668 4.34871C4.71717 3.9712 5.06357 3.65549 5.48213 3.43234C5.9007 3.20919 6.37715 3.0862 6.86509 3.07537C7.35302 3.06453 7.83579 3.16621 8.26637 3.37051L7.48574 4.06435C7.17092 3.97475 6.83442 3.96396 6.51315 4.03317C6.19188 4.10237 5.89827 4.24889 5.66452 4.45665C5.43078 4.66441 5.26593 4.92538 5.18808 5.21093C5.11022 5.49648 5.12236 5.79558 5.22317 6.0754L4.44254 6.76925C4.22347 6.40546 4.10918 5.9991 4.10986 5.58648V5.58648Z" fill="#CFCFCF"/>
<path id="Vector_2" d="M13.9073 5.2179C13.3422 4.15995 12.6695 3.29728 11.8893 2.62988L9.575 4.68702C9.77008 5.14029 9.81332 5.63406 9.69949 6.1087C9.58567 6.58333 9.31965 7.01851 8.93357 7.36167C8.5475 7.70483 8.05788 7.94127 7.52389 8.04244C6.98989 8.14361 6.43435 8.10518 5.9244 7.93179L3.96143 9.67654C4.87211 10.0511 5.88501 10.2384 7.00014 10.2384C10.086 10.2384 12.3884 8.80987 13.9073 5.95285C13.9684 5.83795 14 5.71245 14 5.58537C14 5.4583 13.9684 5.3328 13.9073 5.2179V5.2179Z" fill="#CFCFCF"/>
</g>
</svg>
