<svg width="15" height="15" viewBox="0 0 15 15" fill="none" xmlns="http://www.w3.org/2000/svg">
<g id="Group 2893">
<path id="Vector" d="M14.8541 6.03113H14.25V6H7.5V9H11.7386C11.1203 10.7464 9.45862 12 7.5 12C5.01487 12 3 9.98512 3 7.5C3 5.01487 5.01487 3 7.5 3C8.64713 3 9.69075 3.43275 10.4854 4.13962L12.6068 2.01825C11.2673 0.769875 9.4755 0 7.5 0C3.35812 0 0 3.35812 0 7.5C0 11.6419 3.35812 15 7.5 15C11.6419 15 15 11.6419 15 7.5C15 6.99713 14.9482 6.50625 14.8541 6.03113Z" fill="#FFC107"/>
<path id="Vector_2" d="M0.864746 4.00913L3.32887 5.81625C3.99562 4.1655 5.61037 3 7.5 3C8.64712 3 9.69075 3.43275 10.4854 4.13963L12.6067 2.01825C11.2672 0.769875 9.4755 0 7.5 0C4.61925 0 2.121 1.62638 0.864746 4.00913Z" fill="#FF3D00"/>
<path id="Vector_3" d="M7.50012 15C9.43737 15 11.1976 14.2586 12.5285 13.053L10.2072 11.0888C9.42895 11.6807 8.47791 12.0008 7.50012 12C5.54937 12 3.89299 10.7561 3.26899 9.02026L0.823242 10.9046C2.06449 13.3335 4.58524 15 7.50012 15Z" fill="#4CAF50"/>
<path id="Vector_4" d="M14.8541 6.03113H14.25V6H7.5V9H11.7386C11.4428 9.83116 10.91 10.5574 10.206 11.0891L10.2071 11.0884L12.5284 13.0526C12.3641 13.2019 15 11.25 15 7.5C15 6.99713 14.9482 6.50625 14.8541 6.03113Z" fill="#1976D2"/>
</g>
</svg>
