<svg width="32" height="32" viewBox="0 0 32 32" fill="none" xmlns="http://www.w3.org/2000/svg">
<g id="Icon/Profile">
<path id="Vector" d="M16 2C13.2311 2 10.5243 2.82109 8.22202 4.35943C5.91973 5.89777 4.12532 8.08427 3.06569 10.6424C2.00607 13.2006 1.72882 16.0155 2.26901 18.7313C2.80921 21.447 4.14258 23.9416 6.10051 25.8995C8.05845 27.8574 10.553 29.1908 13.2687 29.731C15.9845 30.2712 18.7994 29.9939 21.3576 28.9343C23.9157 27.8747 26.1022 26.0803 27.6406 23.778C29.1789 21.4757 30 18.7689 30 16C30 12.287 28.525 8.72601 25.8995 6.1005C23.274 3.475 19.713 2 16 2ZM8.24001 25.14C8.55718 23.8234 9.20341 22.6088 10.1182 21.6101C11.0329 20.6114 12.1862 19.8613 13.47 19.43C14.2606 19.8053 15.1248 20 16 20C16.8752 20 17.7394 19.8053 18.53 19.43C19.8138 19.8613 20.9671 20.6114 21.8819 21.6101C22.7966 22.6088 23.4428 23.8234 23.76 25.14C21.5921 26.9779 18.8422 27.9867 16 27.9867C13.1578 27.9867 10.4079 26.9779 8.24001 25.14ZM16 18C15.2089 18 14.4355 17.7654 13.7777 17.3259C13.1199 16.8864 12.6072 16.2616 12.3045 15.5307C12.0017 14.7998 11.9225 13.9956 12.0769 13.2196C12.2312 12.4437 12.6122 11.731 13.1716 11.1716C13.731 10.6122 14.4437 10.2312 15.2196 10.0769C15.9956 9.92252 16.7998 10.0017 17.5307 10.3045C18.2616 10.6072 18.8864 11.1199 19.3259 11.7777C19.7654 12.4355 20 13.2089 20 14C20 15.0609 19.5786 16.0783 18.8284 16.8284C18.0783 17.5786 17.0609 18 16 18ZM25.34 23.51C24.4501 21.1297 22.6874 19.1775 20.41 18.05C21.2007 17.1929 21.7245 16.124 21.9174 14.9739C22.1102 13.8238 21.9638 12.6425 21.4959 11.5744C21.0281 10.5062 20.2591 9.59754 19.283 8.95948C18.307 8.32141 17.1661 7.9816 16 7.9816C14.8339 7.9816 13.693 8.32141 12.717 8.95948C11.7409 9.59754 10.9719 10.5062 10.5041 11.5744C10.0362 12.6425 9.88977 13.8238 10.0826 14.9739C10.2755 16.124 10.7993 17.1929 11.59 18.05C9.31262 19.1775 7.5499 21.1297 6.66001 23.51C5.23822 21.7474 4.34418 19.6186 4.0812 17.3693C3.81822 15.1201 4.19703 12.8424 5.17387 10.7994C6.1507 8.75642 7.68568 7.03151 9.60143 5.82403C11.5172 4.61655 13.7355 3.97578 16 3.97578C18.2645 3.97578 20.4828 4.61655 22.3986 5.82403C24.3143 7.03151 25.8493 8.75642 26.8261 10.7994C27.803 12.8424 28.1818 15.1201 27.9188 17.3693C27.6558 19.6186 26.7618 21.7474 25.34 23.51Z" fill="#C5C8D4"/>
</g>
</svg>
