<svg width="32" height="32" viewBox="0 0 32 32" fill="none" xmlns="http://www.w3.org/2000/svg">
<g id="Icon/Projects">
<path id="Vector" d="M29.3946 15.0217L24.898 12.7735L29.3946 10.5251C30.1989 10.1231 30.1997 8.97119 29.3946 8.56851L16.4883 2.11536C16.1802 1.96155 15.8179 1.96155 15.5099 2.11536L2.60354 8.56851C1.79925 8.97077 1.79839 10.1226 2.60354 10.5251L7.10011 12.7735L2.60354 15.0217C1.79925 15.4239 1.79839 16.5756 2.60354 16.9783L7.10011 19.2266L2.60354 21.4748C1.79925 21.8771 1.79839 23.0287 2.60354 23.4314L15.5099 29.8846C15.8173 30.0382 16.1796 30.0388 16.4883 29.8846L29.3946 23.4314C30.1989 23.0292 30.1997 21.8775 29.3946 21.4748L24.898 19.2266L29.3946 16.9783C30.1989 16.5762 30.1997 15.4243 29.3946 15.0217ZM15.9991 4.31654L26.4596 9.54691L15.9991 14.7771L5.53852 9.54691L15.9991 4.31654ZM26.4596 22.4532L15.9991 27.6834L5.53852 22.4532L9.5459 20.4494L15.5099 23.4314C15.8175 23.585 16.1796 23.5856 16.4883 23.4314L22.4522 20.4494L26.4596 22.4532ZM15.9991 21.2302L5.53852 16.0001L9.5459 13.9963L15.5099 16.9783C15.8175 17.1318 16.1796 17.1325 16.4883 16.9783L22.4522 13.9963L26.4596 16.0001L15.9991 21.2302Z" fill="white"/>
</g>
</svg>
